<svg width="41" height="41" viewBox="0 0 41 41" fill="none" xmlns="http://www.w3.org/2000/svg">
<g clip-path="url(#clip0_6_353)">
<path fill-rule="evenodd" clip-rule="evenodd" d="M21.0548 3.16795C20.7189 2.94402 20.2813 2.94402 19.9454 3.16795L0.465744 16.1544C0.354829 16.2244 0.255948 16.3175 0.176788 16.4324C0.0541253 16.6103 -0.00301116 16.8139 0.000122073 17.0147V38.3636C0.000122073 39.0606 0.275003 39.7304 0.766508 40.2254C1.25825 40.7205 1.92667 41 2.62512 41H38.3751C39.0736 41 39.742 40.7205 40.2337 40.2254C40.7252 39.7304 41.0001 39.0606 41.0001 38.3636V17.0103C41.0022 16.8216 40.9511 16.6305 40.8423 16.4608C40.8345 16.4486 40.8264 16.4365 40.818 16.4246C40.8055 16.4069 40.7925 16.3896 40.7789 16.3727C40.7087 16.2853 40.6262 16.2125 40.5356 16.1551L21.0548 3.16795ZM38.2182 17.0139L20.5001 5.20185L2.78207 17.0139L17.2669 27H23.7353L38.2182 17.0139ZM2.00012 18.904V37.7598L15.2532 28.0409L2.00012 18.904ZM17.3274 29L3.691 39H37.3091L23.6727 29H17.3274ZM25.7479 28.0416L39.0001 37.7599V18.9041L25.7479 28.0416ZM20.0001 22C22.7615 22 25.0001 19.7614 25.0001 17C25.0001 16.111 24.7681 15.2762 24.3614 14.5529L17.553 21.3612C18.2764 21.768 19.1111 22 20.0001 22ZM16.0369 20.0489L23.049 13.0368C22.2051 12.3867 21.1478 12 20.0001 12C17.2387 12 15.0001 14.2386 15.0001 17C15.0001 18.1477 15.3868 19.205 16.0369 20.0489ZM20.0001 24C23.8661 24 27.0001 20.866 27.0001 17C27.0001 13.134 23.8661 10 20.0001 10C16.1341 10 13.0001 13.134 13.0001 17C13.0001 20.866 16.1341 24 20.0001 24Z" fill="#848D94"/>
</g>
<defs>
<clipPath id="clip0_6_353">
<rect width="41" height="41" fill="white"/>
</clipPath>
</defs>
</svg>
