<svg width="70" height="70" viewBox="0 0 70 70" fill="none" xmlns="http://www.w3.org/2000/svg">
<rect width="70" height="70" fill="black"/>
<path fill-rule="evenodd" clip-rule="evenodd" d="M36.0547 16.1679C35.7188 15.944 35.2812 15.944 34.9453 16.1679L15.4656 29.1544C15.3547 29.2244 15.2558 29.3175 15.1767 29.4324C15.054 29.6103 14.9969 29.8139 15 30.0147V51.3636C15 52.0606 15.2749 52.7304 15.7664 53.2254C16.2581 53.7205 16.9266 54 17.625 54H53.375C54.0734 54 54.7419 53.7205 55.2336 53.2254C55.7251 52.7304 56 52.0606 56 51.3636V30.0103C56.0021 29.8216 55.951 29.6305 55.8422 29.4608C55.8344 29.4486 55.8262 29.4365 55.8178 29.4246C55.8054 29.4069 55.7924 29.3896 55.7788 29.3727C55.7086 29.2853 55.626 29.2125 55.5355 29.1551L36.0547 16.1679ZM53.2181 30.0139L35.5 18.2019L17.782 30.0139L32.2667 40H38.7352L53.2181 30.0139ZM17 31.904V50.7598L30.2531 41.0409L17 31.904ZM32.3273 42L18.6909 52H52.309L38.6726 42H32.3273ZM40.7478 41.0416L54 50.7599V31.9041L40.7478 41.0416ZM35 35C37.7614 35 40 32.7614 40 30C40 29.111 39.768 28.2763 39.3613 27.5529L32.5529 34.3613C33.2763 34.768 34.111 35 35 35ZM31.0368 33.0489L38.0489 26.0368C37.205 25.3867 36.1477 25 35 25C32.2386 25 30 27.2386 30 30C30 31.1477 30.3867 32.205 31.0368 33.0489ZM35 37C38.866 37 42 33.866 42 30C42 26.134 38.866 23 35 23C31.134 23 28 26.134 28 30C28 33.866 31.134 37 35 37Z" fill="white"/>
</svg>
